# xmcd
#
# Track frame offsets:
#	150
#	14696
#	30404
#	48789
#	63964
#	80396
#	100817
#	119644
#	136602
#	153932
#	173398
#	192614
#	215875
#	236090
#	252244
#	265820
#	283542
#	304413
#	323837
#	340659
#
# Disc length: 4767 seconds
#
# Revision: 1
# Processed by: cddbd v1.5.2PL0 Copyright (c) Steve Scherf et al.
# Submitted via: audiograbber 1.83.01
#
DISCID=17129d14
DTITLE=Zezé Di Camargo e Luciano - As 20 Mais
DYEAR=2007
DGENRE=Sertanejo
TTITLE0=Amor Que Fica
TTITLE1=Nosso Amor é Ouro
TTITLE2=Tempo Perdido
TTITLE3=No dia em Que Sai de Casa
TTITLE4=Diz Pro Meu Olhar
TTITLE5=Dou a Vida Por Um Beijo
TTITLE6=Faz Mais Uma Vez Comigo
TTITLE7=Fera Mansa
TTITLE8=Pra Mudar Minha Vida
TTITLE9=O Amor Deixou a Gente
TTITLE10=Átomos
TTITLE11=Hey Jude
TTITLE12=Fui Eu
TTITLE13=Salva Meu Coração
TTITLE14=Sou Parada Dura
TTITLE15=A Saudade é Uma Pedra
TTITLE16=Passou da Conta
TTITLE17=Menina Veneno
TTITLE18=A Ferro e Fogo
TTITLE19=Menino Cantador
EXTD=
EXTT0=
EXTT1=
EXTT2=
EXTT3=
EXTT4=
EXTT5=
EXTT6=
EXTT7=
EXTT8=
EXTT9=
EXTT10=
EXTT11=
EXTT12=
EXTT13=
EXTT14=
EXTT15=
EXTT16=
EXTT17=
EXTT18=
EXTT19=
PLAYORDER=
